{
  "accessors": [
    {
      "bufferView": 2,
      "componentType": 5126,
      "count": 65532,
      "max": [
        0.49820879101753235,
        0.7884317636489868,
        2.1943957805633545
      ],
      "min": [
        -0.49820876121520996,
        0.06605320423841476,
        -0.34187647700309753
      ],
      "type": "VEC3"
    },
    {
      "bufferView": 2,
      "byteOffset": 786384,
      "componentType": 5126,
      "count": 65532,
      "max": [
        1.0,
        0.9999998807907104,
        1.0
      ],
      "min": [
        -1.0,
        -1.0,
        -0.9999999403953552
      ],
      "type": "VEC3"
    },
    {
      "bufferView": 3,
      "componentType": 5126,
      "count": 65532,
      "max": [
        1.0,
        0.9999999403953552,
        0.9999916553497314,
        1.0
      ],
      "min": [
        -0.9999943971633911,
        -1.0,
        -0.9999980330467224,
        -1.0
      ],
      "type": "VEC4"
    },
    {
      "bufferView": 1,
      "componentType": 5126,
      "count": 65532,
      "max": [
        0.9979451298713684,
        0.982093095779419
      ],
      "min": [
        0.0020699501037597656,
        0.002048596739768982
      ],
      "type": "VEC2"
    },
    {
      "bufferView": 1,
      "byteOffset": 524256,
      "componentType": 5126,
      "count": 65532,
      "max": [
        0.9979451298713684,
        0.982093095779419
      ],
      "min": [
        0.0020699501037597656,
        0.002048596739768982
      ],
      "type": "VEC2"
    },
    {
      "bufferView": 1,
      "byteOffset": 1048512,
      "componentType": 5126,
      "count": 65532,
      "max": [
        0.9979451298713684,
        0.982093095779419
      ],
      "min": [
        0.0020699501037597656,
        0.002048596739768982
      ],
      "type": "VEC2"
    },
    {
      "bufferView": 1,
      "byteOffset": 1572768,
      "componentType": 5126,
      "count": 65532,
      "max": [
        0.9979451298713684,
        0.982093095779419
      ],
      "min": [
        0.0020699501037597656,
        0.002048596739768982
      ],
      "type": "VEC2"
    },
    {
      "bufferView": 0,
      "componentType": 5125,
      "count": 363345,
      "type": "SCALAR"
    },
    {
      "bufferView": 2,
      "byteOffset": 1572768,
      "componentType": 5126,
      "count": 65532,
      "max": [
        0.5100207924842834,
        0.804933488368988,
        2.17061710357666
      ],
      "min": [
        -0.5100207924842834,
        0.06385006010532379,
        -1.4342454671859741
      ],
      "type": "VEC3"
    },
    {
      "bufferView": 2,
      "byteOffset": 2359152,
      "componentType": 5126,
      "count": 65532,
      "max": [
        1.0,
        1.0,
        1.0
      ],
      "min": [
        -1.0,
        -1.0,
        -1.0
      ],
      "type": "VEC3"
    },
    {
      "bufferView": 3,
      "byteOffset": 1048512,
      "componentType": 5126,
      "count": 65532,
      "max": [
        1.0,
        1.0,
        1.0,
        1.0
      ],
      "min": [
        -1.0,
        -0.9999977946281433,
        -1.0,
        -1.0
      ],
      "type": "VEC4"
    },
    {
      "bufferView": 1,
      "byteOffset": 2097024,
      "componentType": 5126,
      "count": 65532,
      "max": [
        0.9973863959312439,
        0.9765052795410156
      ],
      "min": [
        0.002064305357635021,
        0.0020617684349417686
      ],
      "type": "VEC2"
    },
    {
      "bufferView": 1,
      "byteOffset": 2621280,
      "componentType": 5126,
      "count": 65532,
      "max": [
        0.9973863959312439,
        0.9765052795410156
      ],
      "min": [
        0.002064305357635021,
        0.0020617684349417686
      ],
      "type": "VEC2"
    },
    {
      "bufferView": 1,
      "byteOffset": 3145536,
      "componentType": 5126,
      "count": 65532,
      "max": [
        0.9973863959312439,
        0.9765052795410156
      ],
      "min": [
        0.002064305357635021,
        0.0020617684349417686
      ],
      "type": "VEC2"
    },
    {
      "bufferView": 1,
      "byteOffset": 3669792,
      "componentType": 5126,
      "count": 65532,
      "max": [
        0.9973863959312439,
        0.9765052795410156
      ],
      "min": [
        0.002064305357635021,
        0.0020617684349417686
      ],
      "type": "VEC2"
    },
    {
      "bufferView": 0,
      "byteOffset": 1453380,
      "componentType": 5125,
      "count": 346995,
      "type": "SCALAR"
    },
    {
      "bufferView": 2,
      "byteOffset": 3145536,
      "componentType": 5126,
      "count": 65532,
      "max": [
        0.6269223690032959,
        0.7087211608886719,
        2.1712911128997803
      ],
      "min": [
        -0.6933637261390686,
        -0.00045881851110607386,
        -1.433316946029663
      ],
      "type": "VEC3"
    },
    {
      "bufferView": 2,
      "byteOffset": 3931920,
      "componentType": 5126,
      "count": 65532,
      "max": [
        1.0,
        1.0,
        0.9999958872795105
      ],
      "min": [
        -1.0,
        -0.9999989867210388,
        -0.9999992251396179
      ],
      "type": "VEC3"
    },
    {
      "bufferView": 3,
      "byteOffset": 2097024,
      "componentType": 5126,
      "count": 65532,
      "max": [
        1.0,
        0.9999983906745911,
        0.9999975562095642,
        1.0
      ],
      "min": [
        -1.0,
        -0.9999983906745911,
        -0.9999972581863403,
        -1.0
      ],
      "type": "VEC4"
    },
    {
      "bufferView": 1,
      "byteOffset": 4194048,
      "componentType": 5126,
      "count": 65532,
      "max": [
        0.9793630242347717,
        0.9917968511581421
      ],
      "min": [
        0.0020679235458374023,
        0.003092056605964899
      ],
      "type": "VEC2"
    },
    {
      "bufferView": 1,
      "byteOffset": 4718304,
      "componentType": 5126,
      "count": 65532,
      "max": [
        0.9793630242347717,
        0.9917968511581421
      ],
      "min": [
        0.0020679235458374023,
        0.003092056605964899
      ],
      "type": "VEC2"
    },
    {
      "bufferView": 1,
      "byteOffset": 5242560,
      "componentType": 5126,
      "count": 65532,
      "max": [
        0.9793630242347717,
        0.9917968511581421
      ],
      "min": [
        0.0020679235458374023,
        0.003092056605964899
      ],
      "type": "VEC2"
    },
    {
      "bufferView": 1,
      "byteOffset": 5766816,
      "componentType": 5126,
      "count": 65532,
      "max": [
        0.9793630242347717,
        0.9917968511581421
      ],
      "min": [
        0.0020679235458374023,
        0.003092056605964899
      ],
      "type": "VEC2"
    },
    {
      "bufferView": 0,
      "byteOffset": 2841360,
      "componentType": 5125,
      "count": 281286,
      "type": "SCALAR"
    },
    {
      "bufferView": 2,
      "byteOffset": 4718304,
      "componentType": 5126,
      "count": 65532,
      "max": [
        0.6933637261390686,
        0.5088626146316528,
        2.2459187507629395
      ],
      "min": [
        -0.6540837287902832,
        -0.0004588185984175652,
        -1.4295178651809692
      ],
      "type": "VEC3"
    },
    {
      "bufferView": 2,
      "byteOffset": 5504688,
      "componentType": 5126,
      "count": 65532,
      "max": [
        1.0,
        0.9999990463256836,
        0.9999959468841553
      ],
      "min": [
        -1.0,
        -1.0,
        -1.0
      ],
      "type": "VEC3"
    },
    {
      "bufferView": 3,
      "byteOffset": 3145536,
      "componentType": 5126,
      "count": 65532,
      "max": [
        1.0,
        0.9999999403953552,
        0.9999986886978149,
        1.0
      ],
      "min": [
        -1.0,
        -1.0,
        -0.9999995231628418,
        -1.0
      ],
      "type": "VEC4"
    },
    {
      "bufferView": 1,
      "byteOffset": 6291072,
      "componentType": 5126,
      "count": 65532,
      "max": [
        0.9942832589149475,
        0.9305047392845154
      ],
      "min": [
        0.0020555928349494934,
        0.002058702055364847
      ],
      "type": "VEC2"
    },
    {
      "bufferView": 1,
      "byteOffset": 6815328,
      "componentType": 5126,
      "count": 65532,
      "max": [
        0.9942832589149475,
        0.9305047392845154
      ],
      "min": [
        0.0020555928349494934,
        0.002058702055364847
      ],
      "type": "VEC2"
    },
    {
      "bufferView": 1,
      "byteOffset": 7339584,
      "componentType": 5126,
      "count": 65532,
      "max": [
        0.9942832589149475,
        0.9305047392845154
      ],
      "min": [
        0.0020555928349494934,
        0.002058702055364847
      ],
      "type": "VEC2"
    },
    {
      "bufferView": 1,
      "byteOffset": 7863840,
      "componentType": 5126,
      "count": 65532,
      "max": [
        0.9942832589149475,
        0.9305047392845154
      ],
      "min": [
        0.0020555928349494934,
        0.002058702055364847
      ],
      "type": "VEC2"
    },
    {
      "bufferView": 0,
      "byteOffset": 3966504,
      "componentType": 5125,
      "count": 304968,
      "type": "SCALAR"
    },
    {
      "bufferView": 2,
      "byteOffset": 6291072,
      "componentType": 5126,
      "count": 65532,
      "max": [
        0.6927185654640198,
        0.5757023692131042,
        2.1647469997406006
      ],
      "min": [
        -0.6841639280319214,
        0.0077551198191940784,
        -1.4342213869094849
      ],
      "type": "VEC3"
    },
    {
      "bufferView": 2,
      "byteOffset": 7077456,
      "componentType": 5126,
      "count": 65532,
      "max": [
        1.0,
        1.0,
        1.0
      ],
      "min": [
        -1.0,
        -1.0,
        -1.0
      ],
      "type": "VEC3"
    },
    {
      "bufferView": 3,
      "byteOffset": 4194048,
      "componentType": 5126,
      "count": 65532,
      "max": [
        0.9999994039535522,
        0.9999994039535522,
        0.9999998211860657,
        1.0
      ],
      "min": [
        -0.9999997019767761,
        -0.9999967217445374,
        -1.0,
        -1.0
      ],
      "type": "VEC4"
    },
    {
      "bufferView": 1,
      "byteOffset": 8388096,
      "componentType": 5126,
      "count": 65532,
      "max": [
        0.9979513883590698,
        0.9948749542236328
      ],
      "min": [
        0.002061745384708047,
        0.0020539406687021255
      ],
      "type": "VEC2"
    },
    {
      "bufferView": 1,
      "byteOffset": 8912352,
      "componentType": 5126,
      "count": 65532,
      "max": [
        0.9979513883590698,
        0.9948749542236328
      ],
      "min": [
        0.002061745384708047,
        0.0020539406687021255
      ],
      "type": "VEC2"
    },
    {
      "bufferView": 1,
      "byteOffset": 9436608,
      "componentType": 5126,
      "count": 65532,
      "max": [
        0.9979513883590698,
        0.9948749542236328
      ],
      "min": [
        0.002061745384708047,
        0.0020539406687021255
      ],
      "type": "VEC2"
    },
    {
      "bufferView": 1,
      "byteOffset": 9960864,
      "componentType": 5126,
      "count": 65532,
      "max": [
        0.9979513883590698,
        0.9948749542236328
      ],
      "min": [
        0.002061745384708047,
        0.0020539406687021255
      ],
      "type": "VEC2"
    },
    {
      "bufferView": 0,
      "byteOffset": 5186376,
      "componentType": 5125,
      "count": 300147,
      "type": "SCALAR"
    },
    {
      "bufferView": 2,
      "byteOffset": 7863840,
      "componentType": 5126,
      "count": 65532,
      "max": [
        0.6825554966926575,
        0.6945000290870667,
        1.6283905506134033
      ],
      "min": [
        -0.6821481585502625,
        0.0022621408570557833,
        -1.4909260272979736
      ],
      "type": "VEC3"
    },
    {
      "bufferView": 2,
      "byteOffset": 8650224,
      "componentType": 5126,
      "count": 65532,
      "max": [
        1.0,
        1.0,
        1.0
      ],
      "min": [
        -1.0,
        -1.0,
        -1.0
      ],
      "type": "VEC3"
    },
    {
      "bufferView": 3,
      "byteOffset": 5242560,
      "componentType": 5126,
      "count": 65532,
      "max": [
        1.0,
        0.9999987483024597,
        1.0,
        1.0
      ],
      "min": [
        -0.9999999403953552,
        -0.9999967813491821,
        -0.9999895691871643,
        -1.0
      ],
      "type": "VEC4"
    },
    {
      "bufferView": 1,
      "byteOffset": 10485120,
      "componentType": 5126,
      "count": 65532,
      "max": [
        0.9950740337371826,
        0.9810673594474792
      ],
      "min": [
        0.0020524468272924423,
        0.0020592964719980955
      ],
      "type": "VEC2"
    },
    {
      "bufferView": 1,
      "byteOffset": 11009376,
      "componentType": 5126,
      "count": 65532,
      "max": [
        0.9950740337371826,
        0.9810673594474792
      ],
      "min": [
        0.0020524468272924423,
        0.0020592964719980955
      ],
      "type": "VEC2"
    },
    {
      "bufferView": 1,
      "byteOffset": 11533632,
      "componentType": 5126,
      "count": 65532,
      "max": [
        0.9950740337371826,
        0.9810673594474792
      ],
      "min": [
        0.0020524468272924423,
        0.0020592964719980955
      ],
      "type": "VEC2"
    },
    {
      "bufferView": 1,
      "byteOffset": 12057888,
      "componentType": 5126,
      "count": 65532,
      "max": [
        0.9950740337371826,
        0.9810673594474792
      ],
      "min": [
        0.0020524468272924423,
        0.0020592964719980955
      ],
      "type": "VEC2"
    },
    {
      "bufferView": 0,
      "byteOffset": 6386964,
      "componentType": 5125,
      "count": 368535,
      "type": "SCALAR"
    },
    {
      "bufferView": 2,
      "byteOffset": 9436608,
      "componentType": 5126,
      "count": 19535,
      "max": [
        0.4314337372779846,
        0.6943349838256836,
        0.8802096843719482
      ],
      "min": [
        -0.42415860295295715,
        0.2864192724227905,
        -1.4909261465072632
      ],
      "type": "VEC3"
    },
    {
      "bufferView": 2,
      "byteOffset": 9671028,
      "componentType": 5126,
      "count": 19535,
      "max": [
        1.0,
        1.0,
        1.0
      ],
      "min": [
        -1.0,
        -1.0,
        -1.0
      ],
      "type": "VEC3"
    },
    {
      "bufferView": 3,
      "byteOffset": 6291072,
      "componentType": 5126,
      "count": 19535,
      "max": [
        1.0,
        0.9999867081642151,
        1.0,
        1.0
      ],
      "min": [
        -0.9971463680267334,
        -0.9999853372573853,
        -1.0,
        -1.0
      ],
      "type": "VEC4"
    },
    {
      "bufferView": 1,
      "byteOffset": 12582144,
      "componentType": 5126,
      "count": 19535,
      "max": [
        0.9975566267967224,
        0.8923211097717285
      ],
      "min": [
        0.0020572927314788103,
        0.0021167900413274765
      ],
      "type": "VEC2"
    },
    {
      "bufferView": 1,
      "byteOffset": 12738424,
      "componentType": 5126,
      "count": 19535,
      "max": [
        0.9975566267967224,
        0.8923211097717285
      ],
      "min": [
        0.0020572927314788103,
        0.0021167900413274765
      ],
      "type": "VEC2"
    },
    {
      "bufferView": 1,
      "byteOffset": 12894704,
      "componentType": 5126,
      "count": 19535,
      "max": [
        0.9975566267967224,
        0.8923211097717285
      ],
      "min": [
        0.0020572927314788103,
        0.0021167900413274765
      ],
      "type": "VEC2"
    },
    {
      "bufferView": 1,
      "byteOffset": 13050984,
      "componentType": 5126,
      "count": 19535,
      "max": [
        0.9975566267967224,
        0.8923211097717285
      ],
      "min": [
        0.0020572927314788103,
        0.0021167900413274765
      ],
      "type": "VEC2"
    },
    {
      "bufferView": 0,
      "byteOffset": 7861104,
      "componentType": 5125,
      "count": 107508,
      "type": "SCALAR"
    }
  ],
  "asset": {
    "extras": {
      "author": "Redgrund (https://sketchfab.com/redgrund)",
      "license": "CC-BY-4.0 (http://creativecommons.org/licenses/by/4.0/)",
      "source": "https://sketchfab.com/3d-models/alphatauri-at04-2023-a8003f86f7a24dfbad6cbc1c90069eaf",
      "title": "AlphaTauri AT04  2023"
    },
    "generator": "Sketchfab-16.9.0",
    "version": "2.0"
  },
  "bufferViews": [
    {
      "buffer": 0,
      "byteLength": 8291136,
      "name": "floatBufferViews",
      "target": 34963
    },
    {
      "buffer": 0,
      "byteLength": 13207264,
      "byteOffset": 8291136,
      "byteStride": 8,
      "name": "floatBufferViews",
      "target": 34962
    },
    {
      "buffer": 0,
      "byteLength": 9905448,
      "byteOffset": 21498400,
      "byteStride": 12,
      "name": "floatBufferViews",
      "target": 34962
    },
    {
      "buffer": 0,
      "byteLength": 6603632,
      "byteOffset": 31403848,
      "byteStride": 16,
      "name": "floatBufferViews",
      "target": 34962
    }
  ],
  "buffers": [
    {
      "byteLength": 38007480,
      "uri": "scene.bin"
    }
  ],
  "extensionsUsed": [
    "KHR_materials_clearcoat"
  ],
  "images": [
    {
      "uri": "textures/Body_Baked_baseColor.png"
    },
    {
      "uri": "textures/Body_Baked_metallicRoughness.png"
    },
    {
      "uri": "textures/Body_Baked_normal.png"
    },
    {
      "uri": "textures/Body_Baked_clearcoat.png"
    }
  ],
  "materials": [
    {
      "doubleSided": true,
      "extensions": {
        "KHR_materials_clearcoat": {
          "clearcoatFactor": 1.0,
          "clearcoatRoughnessFactor": 0.04,
          "clearcoatTexture": {
            "index": 3
          }
        }
      },
      "name": "Body_Baked",
      "normalTexture": {
        "index": 2,
        "texCoord": 2
      },
      "pbrMetallicRoughness": {
        "baseColorTexture": {
          "index": 0
        },
        "metallicRoughnessTexture": {
          "index": 1,
          "texCoord": 1
        }
      }
    }
  ],
  "meshes": [
    {
      "name": "Object_0",
      "primitives": [
        {
          "attributes": {
            "NORMAL": 1,
            "POSITION": 0,
            "TANGENT": 2,
            "TEXCOORD_0": 3,
            "TEXCOORD_1": 4,
            "TEXCOORD_2": 5,
            "TEXCOORD_3": 6
          },
          "indices": 7,
          "material": 0,
          "mode": 4
        }
      ]
    },
    {
      "name": "Object_1",
      "primitives": [
        {
          "attributes": {
            "NORMAL": 9,
            "POSITION": 8,
            "TANGENT": 10,
            "TEXCOORD_0": 11,
            "TEXCOORD_1": 12,
            "TEXCOORD_2": 13,
            "TEXCOORD_3": 14
          },
          "indices": 15,
          "material": 0,
          "mode": 4
        }
      ]
    },
    {
      "name": "Object_2",
      "primitives": [
        {
          "attributes": {
            "NORMAL": 17,
            "POSITION": 16,
            "TANGENT": 18,
            "TEXCOORD_0": 19,
            "TEXCOORD_1": 20,
            "TEXCOORD_2": 21,
            "TEXCOORD_3": 22
          },
          "indices": 23,
          "material": 0,
          "mode": 4
        }
      ]
    },
    {
      "name": "Object_3",
      "primitives": [
        {
          "attributes": {
            "NORMAL": 25,
            "POSITION": 24,
            "TANGENT": 26,
            "TEXCOORD_0": 27,
            "TEXCOORD_1": 28,
            "TEXCOORD_2": 29,
            "TEXCOORD_3": 30
          },
          "indices": 31,
          "material": 0,
          "mode": 4
        }
      ]
    },
    {
      "name": "Object_4",
      "primitives": [
        {
          "attributes": {
            "NORMAL": 33,
            "POSITION": 32,
            "TANGENT": 34,
            "TEXCOORD_0": 35,
            "TEXCOORD_1": 36,
            "TEXCOORD_2": 37,
            "TEXCOORD_3": 38
          },
          "indices": 39,
          "material": 0,
          "mode": 4
        }
      ]
    },
    {
      "name": "Object_5",
      "primitives": [
        {
          "attributes": {
            "NORMAL": 41,
            "POSITION": 40,
            "TANGENT": 42,
            "TEXCOORD_0": 43,
            "TEXCOORD_1": 44,
            "TEXCOORD_2": 45,
            "TEXCOORD_3": 46
          },
          "indices": 47,
          "material": 0,
          "mode": 4
        }
      ]
    },
    {
      "name": "Object_6",
      "primitives": [
        {
          "attributes": {
            "NORMAL": 49,
            "POSITION": 48,
            "TANGENT": 50,
            "TEXCOORD_0": 51,
            "TEXCOORD_1": 52,
            "TEXCOORD_2": 53,
            "TEXCOORD_3": 54
          },
          "indices": 55,
          "material": 0,
          "mode": 4
        }
      ]
    }
  ],
  "nodes": [
    {
      "children": [
        1
      ],
      "matrix": [
        1.0,
        0.0,
        0.0,
        0.0,
        0.0,
        2.220446049250313e-16,
        -1.0,
        0.0,
        0.0,
        1.0,
        2.220446049250313e-16,
        0.0,
        0.0,
        0.0,
        0.0,
        1.0
      ],
      "name": "Sketchfab_model"
    },
    {
      "children": [
        2
      ],
      "name": "root"
    },
    {
      "children": [
        3
      ],
      "matrix": [
        1.0,
        0.0,
        0.0,
        0.0,
        0.0,
        2.220446049250313e-16,
        1.0,
        0.0,
        0.0,
        -1.0,
        2.220446049250313e-16,
        0.0,
        0.0,
        0.0,
        0.0,
        1.0
      ],
      "name": "GLTF_SceneRootNode"
    },
    {
      "children": [
        4,
        5,
        6,
        7,
        8,
        9,
        10
      ],
      "name": "Body_Baked_2"
    },
    {
      "mesh": 0,
      "name": "Object_4"
    },
    {
      "mesh": 1,
      "name": "Object_5"
    },
    {
      "mesh": 2,
      "name": "Object_6"
    },
    {
      "mesh": 3,
      "name": "Object_7"
    },
    {
      "mesh": 4,
      "name": "Object_8"
    },
    {
      "mesh": 5,
      "name": "Object_9"
    },
    {
      "mesh": 6,
      "name": "Object_10"
    }
  ],
  "samplers": [
    {
      "magFilter": 9729,
      "minFilter": 9987,
      "wrapS": 10497,
      "wrapT": 10497
    }
  ],
  "scene": 0,
  "scenes": [
    {
      "name": "Sketchfab_Scene",
      "nodes": [
        0
      ]
    }
  ],
  "textures": [
    {
      "sampler": 0,
      "source": 0
    },
    {
      "sampler": 0,
      "source": 1
    },
    {
      "sampler": 0,
      "source": 2
    },
    {
      "sampler": 0,
      "source": 3
    }
  ]
}
